<svg width="110" height="26" viewBox="0 0 110 26" fill="none" xmlns="http://www.w3.org/2000/svg">
<g filter="url(#filter0_d_1_66)">
<path d="M11.7109 5V7.5H4.48438V5H11.7109ZM6.125 2.125H9.45313V13.3125C9.45313 13.6198 9.5 13.8594 9.59375 14.0312C9.6875 14.1979 9.81771 14.3151 9.98438 14.3828C10.1563 14.4505 10.3542 14.4844 10.5781 14.4844C10.7344 14.4844 10.8906 14.4714 11.0469 14.4453C11.2031 14.4141 11.3229 14.3906 11.4063 14.375L11.9297 16.8516C11.763 16.9036 11.5286 16.9635 11.2266 17.0313C10.9245 17.1042 10.5573 17.1484 10.125 17.1641C9.32292 17.1953 8.61979 17.0885 8.01563 16.8437C7.41667 16.599 6.95052 16.2187 6.61719 15.7031C6.28385 15.1875 6.11979 14.5365 6.125 13.75V2.125ZM13.8789 17V5H17.1055V7.09375H17.2305C17.4492 6.34896 17.8164 5.78646 18.332 5.40625C18.8477 5.02083 19.4414 4.82812 20.1133 4.82812C20.2799 4.82812 20.4596 4.83854 20.6523 4.85937C20.8451 4.88021 21.0143 4.90885 21.1602 4.94531V7.89844C21.0039 7.85156 20.7878 7.8099 20.5117 7.77344C20.2357 7.73698 19.9831 7.71875 19.7539 7.71875C19.2643 7.71875 18.8268 7.82552 18.4414 8.03906C18.0612 8.2474 17.7591 8.53906 17.5352 8.91406C17.3164 9.28906 17.207 9.72135 17.207 10.2109V17H13.8789ZM27.791 17.2344C26.5566 17.2344 25.4941 16.9844 24.6035 16.4844C23.7181 15.9792 23.0358 15.2656 22.5566 14.3437C22.0775 13.4167 21.8379 12.3203 21.8379 11.0547C21.8379 9.82031 22.0775 8.73698 22.5566 7.80469C23.0358 6.8724 23.7103 6.14583 24.5801 5.625C25.4551 5.10417 26.4811 4.84375 27.6582 4.84375C28.4499 4.84375 29.1868 4.97135 29.8691 5.22656C30.5566 5.47656 31.1556 5.85417 31.666 6.35937C32.1816 6.86458 32.5827 7.5 32.8691 8.26562C33.1556 9.02604 33.2988 9.91667 33.2988 10.9375V11.8516H23.166V9.78906H30.166C30.166 9.3099 30.0618 8.88542 29.8535 8.51563C29.6452 8.14583 29.3561 7.85677 28.9863 7.64844C28.6217 7.4349 28.1973 7.32812 27.7129 7.32812C27.2077 7.32812 26.7598 7.44531 26.3691 7.67969C25.9837 7.90885 25.6816 8.21875 25.4629 8.60937C25.2441 8.99479 25.1322 9.42448 25.127 9.89844V11.8594C25.127 12.4531 25.2363 12.9661 25.4551 13.3984C25.679 13.8307 25.9941 14.1641 26.4004 14.3984C26.8066 14.6328 27.2884 14.75 27.8457 14.75C28.2155 14.75 28.554 14.6979 28.8613 14.5938C29.1686 14.4896 29.4316 14.3333 29.6504 14.125C29.8691 13.9167 30.0358 13.6615 30.1504 13.3594L33.2285 13.5625C33.0723 14.3021 32.752 14.9479 32.2676 15.5C31.7884 16.0469 31.1686 16.474 30.4082 16.7813C29.653 17.0833 28.7806 17.2344 27.791 17.2344ZM35.4707 17V5H38.7988V17H35.4707ZM37.1426 3.45312C36.6478 3.45312 36.2233 3.28906 35.8691 2.96094C35.5202 2.6276 35.3457 2.22917 35.3457 1.76562C35.3457 1.30729 35.5202 0.914062 35.8691 0.585938C36.2233 0.252604 36.6478 0.0859367 37.1426 0.0859367C37.6374 0.0859367 38.0592 0.252604 38.4082 0.585938C38.7624 0.914062 38.9395 1.30729 38.9395 1.76562C38.9395 2.22917 38.7624 2.6276 38.4082 2.96094C38.0592 3.28906 37.6374 3.45312 37.1426 3.45312ZM44.793 10.0625V17H41.4648V5H44.6367V7.11719H44.7773C45.043 6.41927 45.4883 5.86719 46.1133 5.46094C46.7383 5.04948 47.4961 4.84375 48.3867 4.84375C49.2201 4.84375 49.9466 5.02604 50.5664 5.39062C51.1862 5.75521 51.668 6.27604 52.0117 6.95312C52.3555 7.625 52.5273 8.42708 52.5273 9.35937V17H49.1992V9.95312C49.2044 9.21875 49.0169 8.64583 48.6367 8.23438C48.2565 7.81771 47.7331 7.60937 47.0664 7.60937C46.6185 7.60937 46.2227 7.70573 45.8789 7.89844C45.5404 8.09115 45.2747 8.3724 45.082 8.74219C44.8945 9.10677 44.7982 9.54688 44.793 10.0625ZM60.6191 17.2344C59.3848 17.2344 58.3223 16.9844 57.4316 16.4844C56.5462 15.9792 55.8639 15.2656 55.3848 14.3437C54.9056 13.4167 54.666 12.3203 54.666 11.0547C54.666 9.82031 54.9056 8.73698 55.3848 7.80469C55.8639 6.8724 56.5384 6.14583 57.4082 5.625C58.2832 5.10417 59.3092 4.84375 60.4863 4.84375C61.278 4.84375 62.015 4.97135 62.6973 5.22656C63.3848 5.47656 63.9837 5.85417 64.4941 6.35937C65.0098 6.86458 65.4108 7.5 65.6973 8.26562C65.9837 9.02604 66.127 9.91667 66.127 10.9375V11.8516H55.9941V9.78906H62.9941C62.9941 9.3099 62.89 8.88542 62.6816 8.51563C62.4733 8.14583 62.1842 7.85677 61.8145 7.64844C61.4499 7.4349 61.0254 7.32812 60.541 7.32812C60.0358 7.32812 59.5879 7.44531 59.1973 7.67969C58.8118 7.90885 58.5098 8.21875 58.291 8.60937C58.0723 8.99479 57.9603 9.42448 57.9551 9.89844V11.8594C57.9551 12.4531 58.0645 12.9661 58.2832 13.3984C58.5072 13.8307 58.8223 14.1641 59.2285 14.3984C59.6348 14.6328 60.1165 14.75 60.6738 14.75C61.0436 14.75 61.3822 14.6979 61.6895 14.5938C61.9967 14.4896 62.2598 14.3333 62.4785 14.125C62.6973 13.9167 62.8639 13.6615 62.9785 13.3594L66.0566 13.5625C65.9004 14.3021 65.5801 14.9479 65.0957 15.5C64.6165 16.0469 63.9967 16.474 63.2363 16.7813C62.4811 17.0833 61.6087 17.2344 60.6191 17.2344ZM70.2441 17.2031C69.7285 17.2031 69.2858 17.0208 68.916 16.6562C68.5514 16.2865 68.3691 15.8437 68.3691 15.3281C68.3691 14.8177 68.5514 14.3802 68.916 14.0156C69.2858 13.651 69.7285 13.4687 70.2441 13.4687C70.7441 13.4687 71.1816 13.651 71.5566 14.0156C71.9316 14.3802 72.1191 14.8177 72.1191 15.3281C72.1191 15.6719 72.0306 15.987 71.8535 16.2734C71.6816 16.5547 71.4551 16.7812 71.1738 16.9531C70.8926 17.1198 70.5827 17.2031 70.2441 17.2031ZM74.8516 17V5H78.0234V7.11719H78.1641C78.4141 6.41406 78.8307 5.85937 79.4141 5.45312C79.9974 5.04687 80.6953 4.84375 81.5078 4.84375C82.3307 4.84375 83.0313 5.04948 83.6094 5.46094C84.1875 5.86719 84.5729 6.41927 84.7656 7.11719H84.8906C85.1354 6.42969 85.5781 5.88021 86.2188 5.46875C86.8646 5.05208 87.6276 4.84375 88.5078 4.84375C89.6276 4.84375 90.5365 5.20052 91.2344 5.91406C91.9375 6.6224 92.2891 7.6276 92.2891 8.92969V17H88.9688V9.58594C88.9688 8.91927 88.7917 8.41927 88.4375 8.08594C88.0833 7.7526 87.6406 7.58594 87.1094 7.58594C86.5052 7.58594 86.0339 7.77865 85.6953 8.16406C85.3568 8.54427 85.1875 9.04687 85.1875 9.67187V17H81.9609V9.51562C81.9609 8.92708 81.7917 8.45833 81.4531 8.10937C81.1198 7.76042 80.6797 7.58594 80.1328 7.58594C79.763 7.58594 79.4297 7.67969 79.1328 7.86719C78.8411 8.04948 78.6094 8.30729 78.4375 8.64062C78.2656 8.96875 78.1797 9.35417 78.1797 9.79687V17H74.8516ZM100.387 17.2344C99.1523 17.2344 98.0898 16.9844 97.1992 16.4844C96.3138 15.9792 95.6315 15.2656 95.1523 14.3437C94.6732 13.4167 94.4336 12.3203 94.4336 11.0547C94.4336 9.82031 94.6732 8.73698 95.1523 7.80469C95.6315 6.8724 96.306 6.14583 97.1758 5.625C98.0508 5.10417 99.0768 4.84375 100.254 4.84375C101.046 4.84375 101.783 4.97135 102.465 5.22656C103.152 5.47656 103.751 5.85417 104.262 6.35937C104.777 6.86458 105.178 7.5 105.465 8.26562C105.751 9.02604 105.895 9.91667 105.895 10.9375V11.8516H95.7617V9.78906H102.762C102.762 9.3099 102.658 8.88542 102.449 8.51563C102.241 8.14583 101.952 7.85677 101.582 7.64844C101.217 7.4349 100.793 7.32812 100.309 7.32812C99.8034 7.32812 99.3555 7.44531 98.9648 7.67969C98.5794 7.90885 98.2773 8.21875 98.0586 8.60937C97.8398 8.99479 97.7279 9.42448 97.7227 9.89844V11.8594C97.7227 12.4531 97.832 12.9661 98.0508 13.3984C98.2747 13.8307 98.5898 14.1641 98.9961 14.3984C99.4023 14.6328 99.8841 14.75 100.441 14.75C100.811 14.75 101.15 14.6979 101.457 14.5938C101.764 14.4896 102.027 14.3333 102.246 14.125C102.465 13.9167 102.632 13.6615 102.746 13.3594L105.824 13.5625C105.668 14.3021 105.348 14.9479 104.863 15.5C104.384 16.0469 103.764 16.474 103.004 16.7813C102.249 17.0833 101.376 17.2344 100.387 17.2344Z" fill="#89C5CC"/>
</g>
<defs>
<filter id="filter0_d_1_66" x="0.484375" y="0.0859375" width="109.41" height="25.1484" filterUnits="userSpaceOnUse" color-interpolation-filters="sRGB">
<feFlood flood-opacity="0" result="BackgroundImageFix"/>
<feColorMatrix in="SourceAlpha" type="matrix" values="0 0 0 0 0 0 0 0 0 0 0 0 0 0 0 0 0 0 127 0" result="hardAlpha"/>
<feOffset dy="4"/>
<feGaussianBlur stdDeviation="2"/>
<feComposite in2="hardAlpha" operator="out"/>
<feColorMatrix type="matrix" values="0 0 0 0 0 0 0 0 0 0 0 0 0 0 0 0 0 0 0.25 0"/>
<feBlend mode="normal" in2="BackgroundImageFix" result="effect1_dropShadow_1_66"/>
<feBlend mode="normal" in="SourceGraphic" in2="effect1_dropShadow_1_66" result="shape"/>
</filter>
</defs>
</svg>
